#Comment line ignore any data following # character 
#Hierarchical Translation and Rotation (.htr) file 
[Header]	
#Header keywords are followed by a single value 
FileType HTR		#Single word string
DataType HTRS		#Translation followed by rotation and scale data
FileVersion 1		#integer
NumSegments 64		#integer
NumFrames 3		#integer
DataFrameRate 30		#integer, data frame rate in this file
EulerRotationOrder ZYX
CalibrationUnits mm
RotationUnits Degrees
GlobalAxisofGravity Y
BoneLengthAxis Y
ScaleFactor 1.00
[SegmentNames&Hierarchy]
#CHILD	PARENT
Pinger_Root GLOBAL
Pelvis Pinger_Root
L_Hip Pelvis
R_Hip Pelvis
Rear_Leg01 Pelvis
Spine1 Pelvis
L_Leg01 L_Hip
L_Leg02 L_Leg01
L_Leg03 L_Leg02
L_Foot L_Leg03
L_Toe1_01 L_Foot
L_Toe2_01 L_Foot
L_Toe3_01 L_Foot
planeAlignerLeft L_Foot
L_Toe1_02 L_Toe1_01
L_Toe1_03 L_Toe1_02
L_Toe2_02 L_Toe2_01
L_Toe2_03 L_Toe2_02
L_Toe3_02 L_Toe3_01
L_Toe3_03 L_Toe3_02
planeLockWeightLeft planeAlignerLeft
R_Leg01 R_Hip
R_Leg02 R_Leg01
R_Leg03 R_Leg02
R_Foot R_Leg03
planeAlignerRight R_Foot
R_Toe1_01 R_Foot
R_Toe2_01 R_Foot
R_Toe3_01 R_Foot
planeLockWeightRight planeAlignerRight
R_Toe1_02 R_Toe1_01
R_Toe1_03 R_Toe1_02
R_Toe2_02 R_Toe2_01
R_Toe2_03 R_Toe2_02
R_Toe3_02 R_Toe3_01
R_Toe3_03 R_Toe3_02
Rear_Leg02 Rear_Leg01
Rear_Leg03 Rear_Leg02
Rear_Leg04 Rear_Leg03
Rear_Foot Rear_Leg04
planeAlignerCenter Rear_Foot
Rear_Toe1_01 Rear_Foot
Rear_Toe2_01 Rear_Foot
Rear_Toe3_01 Rear_Foot
planeLockWeightCenter planeAlignerCenter
Rear_Toe1_02 Rear_Toe1_01
Rear_Toe1_03 Rear_Toe1_02
Rear_Toe2_02 Rear_Toe2_01
Rear_Toe2_03 Rear_Toe2_02
Rear_Toe3_02 Rear_Toe3_01
Rear_Toe3_03 Rear_Toe3_02
Back_Bone Spine1
Head Spine1
Motor_Bone Back_Bone
Ping_Mechanism Back_Bone
BN_LookIK Head
bottomMouth Head
L_Mouth01 Head
L_mouthFront Head
mouthGun Head
R_Mouth01 Head
R_mouthFront Head
TopMouth Head
weapon_bone Head
[BasePosition]
#SegmentName Tx, Ty, Tz, Rx, Ry, Rz, BoneLength
Pinger_Root 0.000000 0.000000 0.000000 -90.000000 0.000000 0.000000 10.000000 
Pelvis 0.000000 0.000000 0.000000 0.000000 0.000000 0.000000 10.000000 
L_Hip 0.000000 0.000000 0.000000 0.000000 0.000000 0.000000 10.000000 
R_Hip 0.000000 0.000000 0.000000 0.000000 0.000000 0.000000 10.000000 
Rear_Leg01 0.000000 0.000000 0.000000 0.000000 0.000000 0.000000 10.000000 
Spine1 0.000000 0.000000 0.000000 0.000000 0.000000 0.000000 10.000000 
L_Leg01 0.000000 0.000000 0.000000 0.000000 0.000000 0.000000 10.000000 
L_Leg02 0.000000 0.000000 0.000000 0.000000 0.000000 0.000000 10.000000 
L_Leg03 0.000000 0.000000 0.000000 0.000000 0.000000 0.000000 10.000000 
L_Foot 0.000000 0.000000 0.000000 0.000000 0.000000 0.000000 10.000000 
L_Toe1_01 0.000000 0.000000 0.000000 0.000000 0.000000 0.000000 10.000000 
L_Toe2_01 0.000000 0.000000 0.000000 0.000000 0.000000 0.000000 10.000000 
L_Toe3_01 0.000000 0.000000 0.000000 0.000000 0.000000 0.000000 10.000000 
planeAlignerLeft 0.000000 0.000000 0.000000 0.000000 0.000000 0.000000 10.000000 
L_Toe1_02 0.000000 0.000000 0.000000 0.000000 0.000000 0.000000 10.000000 
L_Toe1_03 0.000000 0.000000 0.000000 0.000000 0.000000 0.000000 10.000000 
L_Toe2_02 0.000000 0.000000 0.000000 0.000000 0.000000 0.000000 10.000000 
L_Toe2_03 0.000000 0.000000 0.000000 0.000000 0.000000 0.000000 10.000000 
L_Toe3_02 0.000000 0.000000 0.000000 0.000000 0.000000 0.000000 10.000000 
L_Toe3_03 0.000000 0.000000 0.000000 0.000000 0.000000 0.000000 10.000000 
planeLockWeightLeft 0.000000 0.000000 0.000000 0.000000 0.000000 0.000000 10.000000 
R_Leg01 0.000000 0.000000 0.000000 0.000000 0.000000 0.000000 10.000000 
R_Leg02 0.000000 0.000000 0.000000 0.000000 0.000000 0.000000 10.000000 
R_Leg03 0.000000 0.000000 0.000000 0.000000 0.000000 0.000000 10.000000 
R_Foot 0.000000 0.000000 0.000000 0.000000 0.000000 0.000000 10.000000 
planeAlignerRight 0.000000 0.000000 0.000000 0.000000 0.000000 0.000000 10.000000 
R_Toe1_01 0.000000 0.000000 0.000000 0.000000 0.000000 0.000000 10.000000 
R_Toe2_01 0.000000 0.000000 0.000000 0.000000 0.000000 0.000000 10.000000 
R_Toe3_01 0.000000 0.000000 0.000000 0.000000 0.000000 0.000000 10.000000 
planeLockWeightRight 0.000000 0.000000 0.000000 0.000000 0.000000 0.000000 10.000000 
R_Toe1_02 0.000000 0.000000 0.000000 0.000000 0.000000 0.000000 10.000000 
R_Toe1_03 0.000000 0.000000 0.000000 0.000000 0.000000 0.000000 10.000000 
R_Toe2_02 0.000000 0.000000 0.000000 0.000000 0.000000 0.000000 10.000000 
R_Toe2_03 0.000000 0.000000 0.000000 0.000000 0.000000 0.000000 10.000000 
R_Toe3_02 0.000000 0.000000 0.000000 0.000000 0.000000 0.000000 10.000000 
R_Toe3_03 0.000000 0.000000 0.000000 0.000000 0.000000 0.000000 10.000000 
Rear_Leg02 0.000000 0.000000 0.000000 0.000000 0.000000 0.000000 10.000000 
Rear_Leg03 0.000000 0.000000 0.000000 0.000000 0.000000 0.000000 10.000000 
Rear_Leg04 0.000000 0.000000 0.000000 0.000000 0.000000 0.000000 10.000000 
Rear_Foot 0.000000 0.000000 0.000000 0.000000 0.000000 0.000000 10.000000 
planeAlignerCenter 0.000000 0.000000 0.000000 0.000000 0.000000 0.000000 10.000000 
Rear_Toe1_01 0.000000 0.000000 0.000000 0.000000 0.000000 0.000000 10.000000 
Rear_Toe2_01 0.000000 0.000000 0.000000 0.000000 0.000000 0.000000 10.000000 
Rear_Toe3_01 0.000000 0.000000 0.000000 0.000000 0.000000 0.000000 10.000000 
planeLockWeightCenter 0.000000 0.000000 0.000000 0.000000 0.000000 0.000000 10.000000 
Rear_Toe1_02 0.000000 0.000000 0.000000 0.000000 0.000000 0.000000 10.000000 
Rear_Toe1_03 0.000000 0.000000 0.000000 0.000000 0.000000 0.000000 10.000000 
Rear_Toe2_02 0.000000 0.000000 0.000000 0.000000 0.000000 0.000000 10.000000 
Rear_Toe2_03 0.000000 0.000000 0.000000 0.000000 0.000000 0.000000 10.000000 
Rear_Toe3_02 0.000000 0.000000 0.000000 0.000000 0.000000 0.000000 10.000000 
Rear_Toe3_03 0.000000 0.000000 0.000000 0.000000 0.000000 0.000000 10.000000 
Back_Bone 0.000000 0.000000 0.000000 0.000000 0.000000 0.000000 10.000000 
Head 0.000000 0.000000 0.000000 0.000000 0.000000 0.000000 10.000000 
Motor_Bone 0.000000 0.000000 0.000000 0.000000 0.000000 0.000000 10.000000 
Ping_Mechanism 0.000000 0.000000 0.000000 0.000000 0.000000 0.000000 10.000000 
BN_LookIK 0.000000 0.000000 0.000000 0.000000 0.000000 0.000000 10.000000 
bottomMouth 0.000000 0.000000 0.000000 0.000000 0.000000 0.000000 10.000000 
L_Mouth01 0.000000 0.000000 0.000000 0.000000 0.000000 0.000000 10.000000 
L_mouthFront 0.000000 0.000000 0.000000 0.000000 0.000000 0.000000 10.000000 
mouthGun 0.000000 0.000000 0.000000 0.000000 0.000000 0.000000 10.000000 
R_Mouth01 0.000000 0.000000 0.000000 0.000000 0.000000 0.000000 10.000000 
R_mouthFront 0.000000 0.000000 0.000000 0.000000 0.000000 0.000000 10.000000 
TopMouth 0.000000 0.000000 0.000000 0.000000 0.000000 0.000000 10.000000 
weapon_bone 0.000000 0.000000 0.000000 0.000000 0.000000 0.000000 10.000000 
#Beginning of Data. Separated by tabs
#Fr	Tx	Ty	Tz	Rx	Ry	Rz	SF
[Pinger_Root]
257 0.000000 0.000000 0.000000 -0.000075 -0.000000 -0.000020 0.000000
258 0.000000 0.000000 0.000000 -0.000075 -0.000000 -0.000020 0.000000
259 0.000000 0.000000 0.000000 -0.000075 -0.000000 -0.000020 0.000000
[Pelvis]
257 -1790.870972 23288.761719 -4184.043457 14.086812 -72.429314 -2.252145 23729.302734
258 -1781.686279 23375.849609 -4171.421387 15.828246 -72.030022 -2.272786 23811.876953
259 -1771.077637 23455.417969 -4172.140625 17.540531 -71.885414 -2.433677 23889.330078
[L_Hip]
257 5.766392 125.831482 872.656799 -178.253311 -81.787758 87.381340 881.701050
258 5.766392 125.831482 872.656799 -178.253311 -81.787758 87.381340 881.701050
259 5.766392 125.831482 872.656799 -178.253311 -81.787758 87.381340 881.701050
[R_Hip]
257 5.765438 125.836372 -872.654907 -1.746690 81.787712 87.381248 881.699829
258 5.765438 125.836372 -872.654907 -1.746690 81.787712 87.381248 881.699829
259 5.765438 125.836372 -872.654907 -1.746690 81.787712 87.381248 881.699829
[Rear_Leg01]
257 -192.298416 -925.602966 -0.001907 139.331543 15.663890 174.403946 945.367432
258 -192.298416 -925.602966 -0.001907 142.249146 15.319384 175.818146 945.367432
259 -192.298416 -925.602966 -0.001907 145.264801 14.799015 176.994263 945.367432
[Spine1]
257 290.604584 5.007505 0.000477 -18.573448 -7.491128 38.209843 290.647736
258 290.604584 5.007505 0.000477 -20.367270 -6.677169 38.363480 290.647736
259 290.604584 5.007505 0.000477 -22.156015 -5.858862 38.491173 290.647736
[L_Leg01]
257 761.932007 -0.002384 -0.069261 87.114029 6.357224 -98.804550 761.932068
258 761.932007 -0.002384 -0.069261 88.721878 6.965458 -98.638672 761.932068
259 761.932007 -0.002384 -0.069261 90.333611 7.568815 -98.455399 761.932068
[L_Leg02]
257 1441.140503 -0.000954 -0.000715 -1.309922 0.812234 -84.104553 1441.140503
258 1441.140503 -0.000954 -0.000715 -1.296950 0.827746 -83.321045 1441.140503
259 1441.140503 -0.000954 -0.000715 -1.293381 0.832078 -83.083191 1441.140503
[L_Leg03]
257 1686.963989 -0.000715 -0.000954 0.101401 -0.014564 82.706017 1686.963989
258 1686.963989 -0.000715 -0.000954 0.104761 -0.009911 81.675690 1686.963989
259 1686.963989 -0.000715 -0.000954 0.106669 -0.011185 81.307381 1686.963989
[L_Foot]
257 3041.570068 -30.715107 11.297464 -10.978637 13.817592 92.164780 3041.746094
258 3041.570068 -30.715107 11.297464 -11.240450 13.786672 92.601517 3041.746094
259 3041.570068 -30.715107 11.297464 -11.502456 13.757688 93.038292 3041.746094
[L_Toe1_01]
257 -188.216690 -224.732346 -21.137953 80.875664 -1.545463 -148.130875 293.899567
258 -188.216690 -224.732346 -21.137953 80.808586 -1.421537 -146.956924 293.899567
259 -188.216690 -224.732346 -21.137953 80.752274 -1.335100 -146.149063 293.899567
[L_Toe2_01]
257 200.746536 -219.926590 148.838394 -78.612747 -11.787357 -57.750950 332.896027
258 200.746536 -219.926590 148.838394 -78.475899 -11.601486 -58.611778 332.896027
259 200.746536 -219.926590 148.838394 -78.374001 -11.457922 -59.274937 332.896027
[L_Toe3_01]
257 188.832520 -219.859131 -191.078659 -95.285889 17.266420 -60.332645 347.140900
258 188.832520 -219.859131 -191.078659 -95.412994 17.109095 -61.130516 347.140900
259 188.832520 -219.859131 -191.078659 -95.537682 16.950098 -61.927303 347.140900
[planeAlignerLeft]
257 0.812531 -811.448792 -0.314951 0.000000 -90.000000 -90.001900 811.449280
258 0.812531 -811.448792 -0.314951 0.000000 -90.000000 -90.001900 811.449280
259 0.812531 -811.448792 -0.314951 0.000000 -90.000000 -90.001900 811.449280
[L_Toe1_02]
257 413.761139 0.000477 0.000000 0.001384 -25.972328 0.001384 413.761139
258 413.761139 0.000477 0.000000 0.001385 -25.896221 0.001385 413.761139
259 413.761139 0.000477 0.000000 0.001385 -25.820112 0.001385 413.761139
[L_Toe1_03]
257 464.317322 0.000358 -0.000089 0.003547 51.353100 0.003547 464.317322
258 464.317322 0.000358 -0.000089 0.003366 49.189651 0.003366 464.317322
259 464.317322 0.000358 -0.000089 0.003234 47.444294 0.003234 464.317322
[L_Toe2_02]
257 342.235809 -0.000477 0.000238 0.001183 -75.577278 0.001183 342.235809
258 342.235809 -0.000477 0.000238 0.001184 -75.159897 0.001184 342.235809
259 342.235809 -0.000477 0.000238 0.001184 -74.742493 0.001184 342.235809
[L_Toe2_03]
257 420.210846 -0.000715 0.000000 -179.986557 85.665146 -179.983047 420.210846
258 420.210846 -0.000715 0.000000 -179.980072 86.960045 -179.976578 420.210846
259 420.210846 -0.000715 0.000000 -179.969147 87.979874 -179.965652 420.210846
[L_Toe3_02]
257 329.270111 0.000954 0.000000 0.001179 -79.298546 0.001179 329.270111
258 329.270111 0.000954 0.000000 0.001179 -78.934006 0.001179 329.270111
259 329.270111 0.000954 0.000000 0.001179 -78.569473 0.001179 329.270111
[L_Toe3_03]
257 439.137451 -0.001907 0.000954 -179.991959 83.267166 -179.988464 439.137451
258 439.137451 -0.001907 0.000954 -179.989822 84.477173 -179.986313 439.137451
259 439.137451 -0.001907 0.000954 -179.987350 85.429329 -179.983826 439.137451
[planeLockWeightLeft]
257 -0.000954 0.000238 -0.000305 -0.011826 -0.004376 0.005620 0.001029
258 -0.000954 0.000238 -0.000305 -0.011826 -0.004376 0.005620 0.001029
259 -0.000954 0.000238 -0.000305 -0.011826 -0.004376 0.005620 0.001029
[R_Leg01]
257 761.455627 -0.001907 -0.000358 117.651634 -55.619335 13.583076 761.455688
258 761.455627 -0.001907 -0.000358 125.505112 -57.751923 3.675377 761.455688
259 761.455627 -0.001907 -0.000358 133.601105 -59.520290 -6.343601 761.455688
[R_Leg02]
257 1441.140625 0.000000 -0.000238 -1.095704 0.206170 175.336029 1441.140625
258 1441.140625 0.000000 -0.000238 -1.119014 0.211123 173.899979 1441.140625
259 1441.140625 0.000000 -0.000238 -1.136003 0.211474 173.018860 1441.140625
[R_Leg03]
257 1686.963989 0.000954 0.001431 -0.023053 0.008139 104.115715 1686.963989
258 1686.963989 0.000954 0.001431 -0.022279 0.007205 104.325798 1686.963989
259 1686.963989 0.000954 0.001431 -0.021510 0.006268 104.535828 1686.963989
[R_Foot]
257 3041.560059 -30.531288 -11.204481 25.763948 -23.010651 89.554924 3041.734131
258 3041.560059 -30.531288 -11.204481 23.315556 -22.986258 89.950951 3041.734131
259 3041.560059 -30.531288 -11.204481 21.025486 -22.985003 89.430054 3041.734131
[planeAlignerRight]
257 -0.635147 -812.270569 -0.364304 0.000000 -89.960434 -90.005180 812.270874
258 -0.635147 -812.270569 -0.364304 0.000000 -89.960434 -90.005180 812.270874
259 -0.635147 -812.270569 -0.364304 0.000000 -89.960434 -90.005180 812.270874
[R_Toe1_01]
257 -188.383347 -224.864899 21.052242 94.811218 2.065109 -145.722519 294.101532
258 -188.383347 -224.864899 21.052242 94.807892 2.189023 -145.573822 294.101532
259 -188.383347 -224.864899 21.052242 94.831688 2.206539 -145.143326 294.101532
[R_Toe2_01]
257 200.637817 -220.002121 -148.787384 -98.798668 8.211725 -80.528229 332.857574
258 200.637817 -220.002121 -148.787384 -98.835510 9.165070 -79.907616 332.857574
259 200.637817 -220.002121 -148.787384 -98.861938 10.118777 -79.285683 332.857574
[R_Toe3_01]
257 188.606735 -220.092957 191.126343 -71.740494 -12.423282 -81.436440 347.192566
258 188.606735 -220.092957 191.126343 -71.881088 -12.020987 -80.627129 347.192566
259 188.606735 -220.092957 191.126343 -72.014671 -11.584976 -80.103760 347.192566
[planeLockWeightRight]
257 -0.000477 0.000000 0.000000 -0.011823 -0.004379 -0.000027 0.000477
258 -0.000477 0.000000 0.000000 -0.011823 -0.004379 -0.000027 0.000477
259 -0.000477 0.000000 0.000000 -0.011823 -0.004379 -0.000027 0.000477
[R_Toe1_02]
257 413.762085 0.000477 -0.000119 0.001411 -22.572723 0.001411 413.762085
258 413.762085 0.000477 -0.000119 0.001403 -23.562983 0.001403 413.762085
259 413.762085 0.000477 -0.000119 0.001395 -24.553080 0.001395 413.762085
[R_Toe1_03]
257 464.317810 0.000000 0.001088 0.014083 80.439331 0.014083 464.317810
258 464.317810 0.000000 0.001088 0.009666 76.052910 0.009666 464.317810
259 464.317810 0.000000 0.001088 0.006843 70.251648 0.006844 464.317810
[R_Toe2_02]
257 342.234741 -0.000954 0.000238 -0.002331 -80.712402 -0.002331 342.234741
258 342.234741 -0.000954 0.000238 -0.002331 -80.693649 -0.002331 342.234741
259 342.234741 -0.000954 0.000238 -0.002331 -80.674767 -0.002331 342.234741
[R_Toe2_03]
257 420.210846 0.000715 -0.000268 -179.996353 52.988560 179.999969 420.210846
258 420.210846 0.000715 -0.000268 -179.996307 54.054607 -179.999985 420.210846
259 420.210846 0.000715 -0.000268 -179.996246 55.121094 -179.999908 420.210846
[R_Toe3_02]
257 329.270355 -0.000477 -0.000954 0.001175 -84.345802 0.001175 329.270355
258 329.270355 -0.000477 -0.000954 0.001175 -84.325874 0.001175 329.270355
259 329.270355 -0.000477 -0.000954 0.001175 -84.305779 0.001175 329.270355
[R_Toe3_03]
257 439.137939 0.000238 0.001431 -179.996216 53.695881 -179.988861 439.137939
258 439.137939 0.000238 0.001431 -179.996124 54.129669 -179.988785 439.137939
259 439.137939 0.000238 0.001431 -179.996048 54.563747 -179.988693 439.137939
[Rear_Leg02]
257 1162.777710 -0.029802 0.005960 -15.304844 8.296545 -168.293915 1162.777710
258 1162.777710 -0.029802 0.005960 -14.308781 7.361428 -169.786423 1162.777710
259 1162.777710 -0.029802 0.005960 -13.255411 6.374844 -171.598099 1162.777710
[Rear_Leg03]
257 607.192505 -0.013351 -0.073195 0.009982 -0.006042 78.727234 607.192505
258 607.192505 -0.013351 -0.073195 0.009972 -0.006059 78.924507 607.192505
259 607.192505 -0.013351 -0.073195 0.009961 -0.006077 79.121765 607.192505
[Rear_Leg04]
257 995.874512 -0.020504 -0.011921 -0.044004 -0.015110 96.255417 995.874573
258 995.874512 -0.020504 -0.011921 -0.044134 -0.014728 97.247887 995.874573
259 995.874512 -0.020504 -0.011921 -0.044286 -0.014265 98.448486 995.874573
[Rear_Foot]
257 3096.176270 -0.067472 -0.041425 67.232689 71.401260 -129.588913 3096.176270
258 3096.176270 -0.067472 -0.041425 69.568497 73.066071 -126.567299 3096.176270
259 3096.176270 -0.067472 -0.041425 71.897697 74.824646 -123.550117 3096.176270
[planeAlignerCenter]
257 0.350077 0.966311 -838.790894 0.000009 0.000003 -179.999985 838.791565
258 0.350077 0.966311 -838.790894 0.000009 0.000003 -179.999985 838.791565
259 0.350077 0.966311 -838.790894 0.000009 0.000003 -179.999985 838.791565
[Rear_Toe1_01]
257 0.653352 83.966492 -371.173737 -0.814954 24.725010 65.074051 380.553192
258 0.653352 83.966492 -371.173737 -0.793186 26.811541 66.030380 380.553192
259 0.653352 83.966492 -371.173737 -0.761923 28.369648 67.132744 380.553192
[Rear_Toe2_01]
257 178.200760 -294.826019 -362.060547 -9.993869 49.110027 -106.870522 499.765686
258 178.200760 -294.826019 -362.060547 -10.171519 50.750275 -105.704338 499.765686
259 178.200760 -294.826019 -362.060547 -10.215490 52.051414 -104.304825 499.765686
[Rear_Toe3_01]
257 -153.359680 -308.780914 -362.060852 -6.075805 50.537880 -144.043915 499.952881
258 -153.359680 -308.780914 -362.060852 -6.659571 52.049984 -143.736465 499.952881
259 -153.359680 -308.780914 -362.060852 -7.071915 53.180672 -143.069229 499.952881
[planeLockWeightCenter]
257 -0.000062 0.000238 0.000000 -0.011814 -0.004373 -0.000015 0.000246
258 -0.000062 0.000238 0.000000 -0.011814 -0.004373 -0.000015 0.000246
259 -0.000062 0.000238 0.000000 -0.011814 -0.004373 -0.000015 0.000246
[Rear_Toe1_02]
257 379.707825 0.194073 0.000477 -0.002639 -33.356205 -0.002639 379.707855
258 379.707825 0.194073 0.000477 -0.000652 -33.482761 -0.000652 379.707855
259 379.707825 0.194073 0.000477 0.001332 -33.609280 0.001332 379.707855
[Rear_Toe1_03]
257 500.129700 0.165701 0.000119 0.005370 82.349579 0.003616 500.129761
258 500.129700 0.165701 0.000119 0.010607 77.295090 0.010607 500.129761
259 500.129700 0.165701 0.000119 0.007978 73.081696 0.007978 500.129761
[Rear_Toe2_02]
257 340.494507 0.000238 -0.000954 0.001197 -67.235252 0.001197 340.494507
258 340.494507 0.000238 -0.000954 0.001195 -68.568886 0.001195 340.494507
259 340.494507 0.000238 -0.000954 0.001192 -69.902519 0.001192 340.494507
[Rear_Toe2_03]
257 433.103577 0.000000 0.000238 0.005643 65.987770 0.005643 433.103546
258 433.103577 0.000000 0.000238 0.006141 67.963264 0.006141 433.103546
259 433.103577 0.000000 0.000238 0.006758 69.989838 0.006758 433.103546
[Rear_Toe3_02]
257 340.494141 -0.000358 -0.000477 0.001188 -72.389740 0.001188 340.494171
258 340.494141 -0.000358 -0.000477 0.001186 -73.187004 0.001186 340.494171
259 340.494141 -0.000358 -0.000477 0.001185 -73.984268 0.001185 340.494171
[Rear_Toe3_03]
257 433.103577 0.001431 -0.000238 0.008377 73.891640 0.008377 433.103546
258 433.103577 0.001431 -0.000238 0.009022 75.051979 0.009022 433.103546
259 433.103577 0.001431 -0.000238 0.009945 76.443604 0.009945 433.103546
[Back_Bone]
257 1312.175781 -701.934692 0.000954 0.907712 0.120272 -98.090446 1488.125488
258 1312.175781 -701.934692 0.000954 0.916100 0.118395 -97.929054 1488.125488
259 1312.175781 -701.934692 0.000954 0.924482 0.116494 -97.767662 1488.125488
[Head]
257 1406.159424 809.709290 0.001431 -0.221648 -2.078239 4.666579 1622.625488
258 1406.159424 809.709290 0.001431 0.218231 -2.171455 4.417648 1622.625488
259 1406.159424 809.709290 0.001431 0.658533 -2.262757 4.167995 1622.625488
[Motor_Bone]
257 1158.364380 -417.834747 0.000477 0.251855 -0.541808 -106.527908 1231.419434
258 1158.364380 -417.834747 0.000477 2.270552 -1.149516 -107.133400 1231.419434
259 1158.364380 -417.834747 0.000477 1.114740 -1.132541 -107.122055 1231.419434
[Ping_Mechanism]
257 1185.170898 -406.018036 85.893097 0.000103 -0.000053 82.120995 1255.730225
258 1187.126831 -406.069733 86.890434 0.000103 -0.000053 82.120995 1257.661621
259 1189.082886 -406.121399 87.887756 0.000103 -0.000053 82.120995 1259.593994
[BN_LookIK]
257 193.241119 1380.371704 -0.002861 0.000000 89.965736 -31.038179 1393.832153
258 193.241119 1380.371704 -0.002861 0.000000 89.965736 -31.038179 1393.832153
259 193.241119 1380.371704 -0.002861 0.000000 89.965736 -31.038179 1393.832153
[bottomMouth]
257 -435.092926 615.759399 -0.000954 -0.000022 0.000016 73.527184 753.966492
258 -435.092926 615.759399 -0.000954 -0.000022 0.000016 73.527184 753.966492
259 -435.092926 615.759399 -0.000954 -0.000022 0.000016 73.527184 753.966492
[L_Mouth01]
257 554.440979 7.658243 838.222046 150.204178 23.759130 109.605339 1005.027161
258 554.440979 7.658243 838.222046 150.204178 23.759130 109.605339 1005.027161
259 554.440979 7.658243 838.222046 150.204178 23.759130 109.605339 1005.027161
[L_mouthFront]
257 551.629089 934.514771 339.150421 0.000081 2.804060 79.119301 1136.941284
258 551.629089 934.514771 339.150421 0.000081 2.804060 79.119301 1136.941284
259 551.629089 934.514771 339.150421 0.000081 2.804060 79.119301 1136.941284
[mouthGun]
257 55.332661 1627.420898 0.000000 0.000023 0.000009 -11.038128 1628.361328
258 55.332661 1627.420898 0.000000 0.000023 0.000009 -11.038128 1628.361328
259 55.332661 1627.420898 0.000000 0.000023 0.000009 -11.038128 1628.361328
[R_Mouth01]
257 554.442383 7.659197 -838.223938 29.795891 -23.759109 109.605331 1005.029541
258 554.442383 7.659197 -838.223938 29.795891 -23.759109 109.605331 1005.029541
259 554.442383 7.659197 -838.223938 29.795891 -23.759109 109.605331 1005.029541
[R_mouthFront]
257 551.629089 934.514282 -339.151367 0.000029 -2.803930 79.119133 1136.941162
258 551.629089 934.514282 -339.151367 0.000029 -2.803930 79.119133 1136.941162
259 551.629089 934.514282 -339.151367 0.000029 -2.803930 79.119133 1136.941162
[TopMouth]
257 461.269867 -56.106091 -0.008583 -0.000059 -0.000268 92.025169 464.669525
258 461.269867 -56.106091 -0.008583 -0.000059 -0.000268 92.025169 464.669525
259 461.269867 -56.106091 -0.008583 -0.000059 -0.000268 92.025169 464.669525
[weapon_bone]
257 -987.239868 1448.372803 0.001431 0.000000 89.965736 -31.038221 1752.833740
258 -987.239868 1448.372803 0.001431 0.000000 89.965736 -31.038221 1752.833740
259 -987.239868 1448.372803 0.001431 0.000000 89.965736 -31.038221 1752.833740
